<svg width="665" height="887" viewBox="0 0 665 887" fill="none" xmlns="http://www.w3.org/2000/svg">
<path d="M664.184 0C664.286 1.60712 664.482 3.21424 664.482 4.82136C664.494 116.617 664.494 228.414 664.494 340.216C664.494 520.451 664.494 700.693 664.494 880.929C664.494 882.637 664.494 884.345 664.494 886.25C663.375 886.411 662.553 886.583 661.726 886.637C660.755 886.696 659.779 886.655 658.809 886.655C440.811 886.655 222.814 886.655 4.80991 886.643C3.20261 886.643 1.60128 886.446 -0.00601802 886.345C0.101135 886.559 0.196339 886.958 0.321352 886.964C1.18453 887.018 2.04777 886.994 2.91095 886.994L664.833 886.994V881.619C664.833 588.718 664.833 295.817 664.792 2.91663C664.792 1.97021 665.542 0.714276 664.184 0Z" fill="white"/>
<path d="M103.308 485.863C104.909 485.464 106.201 486.083 107.499 487.345C109.255 489.053 111.213 490.595 113.255 491.952C114.047 492.476 115.321 492.517 116.339 492.416C118.208 492.232 119.75 492.547 120.905 494.154C121.816 495.422 123.113 495.892 124.619 495.541C126.739 495.047 128.429 495.523 129.739 497.345C130.578 498.517 131.828 498.833 133.21 498.547C135.281 498.124 137.049 498.446 138.383 500.291C139.216 501.446 140.442 501.743 141.841 501.612C143.347 501.469 144.86 501.416 146.372 501.344C147.937 501.267 149.372 501.571 150.515 502.779C151.735 504.077 153.283 504.386 154.98 504.083C156.95 503.725 158.593 504.136 159.831 505.85C160.754 507.136 162.099 507.35 163.599 507.112C166.784 506.6 169.749 506.797 172.499 508.951C173.434 509.678 175.172 509.648 176.5 509.529C178.375 509.356 179.923 509.6 181.107 511.172C182.137 512.535 183.536 512.838 185.155 512.606C186.649 512.386 188.167 512.285 189.662 512.053C191.293 511.803 192.686 512.154 193.686 513.523C194.864 515.136 196.442 515.44 198.287 515.106C199.246 514.934 200.222 514.892 201.181 514.749C203.324 514.44 205.24 514.648 206.705 516.553C207.568 517.672 208.86 517.886 210.235 517.701C211.414 517.547 212.598 517.439 213.777 517.32C215.902 517.1 217.742 517.428 219.42 519.059C220.212 519.832 221.724 520.064 222.939 520.148C224.32 520.249 225.731 519.922 227.124 519.767C229.046 519.547 230.755 519.814 232.076 521.457C233.041 522.654 234.386 522.951 235.886 522.695C237.059 522.499 238.256 522.457 239.422 522.225C241.69 521.773 243.697 521.916 245.209 523.987C246.066 525.166 247.387 525.255 248.739 525.1C251.209 524.82 253.68 524.552 256.15 524.291C258.264 524.064 260.228 524.172 261.728 526.052C262.699 527.261 264.103 527.362 265.586 527.154C269.437 526.618 273.301 526.13 277.164 525.666C280.611 525.249 283.974 524.868 287.005 527.451C287.88 528.195 289.683 528.118 291.017 527.993C294.886 527.624 298.75 527.1 302.595 526.505C304.685 526.177 306.393 526.433 307.792 528.225C308.239 528.791 309.536 529.416 309.882 529.177C310.554 528.719 311.031 527.719 311.221 526.862C311.4 526.058 311.09 525.154 311.031 524.291C310.864 521.975 311.066 519.767 312.602 517.844C313.829 516.309 313.942 514.523 313.686 512.612C313.156 508.648 312.745 504.666 312.299 500.696C312.12 499.118 312.352 497.666 313.632 496.559C315.21 495.202 315.382 493.481 315.12 491.541C314.233 485.005 313.465 478.452 312.549 471.922C312.174 469.256 312.394 466.762 313.775 464.41C314.858 462.571 315.132 460.571 314.858 458.464C313.626 448.923 312.43 439.369 311.185 429.828C310.84 427.191 309.804 424.923 307.887 422.953C305.399 420.387 306.102 418.607 309.709 417.947C310.763 417.756 311.906 417.524 312.918 417.744C315.466 418.292 317.763 417.596 320.198 417.018C324.288 416.054 328.467 415.417 332.64 414.863C345.606 413.137 358.589 411.56 371.554 409.834C375.906 409.256 380.079 409.375 384.347 410.721C386.83 411.5 389.693 411.483 392.336 411.245C398.146 410.715 403.921 409.804 409.713 409.084C412.529 408.733 415.243 408.596 417.726 410.596C418.613 411.31 420.184 411.483 421.417 411.411C424.756 411.221 428.09 410.864 431.406 410.399C434.906 409.911 438.222 409.768 441.347 411.994C442.359 412.715 444.02 412.733 445.377 412.709C447.205 412.679 449.026 412.298 450.848 412.084C452.955 411.834 454.979 412.143 456.741 413.358C458.748 414.738 460.909 415.012 463.242 414.631C464.308 414.459 465.391 414.399 466.457 414.215C468.397 413.881 470.094 414.119 471.368 415.846C472.285 417.096 473.6 417.453 475.112 417.238C476.291 417.072 477.476 416.983 478.654 416.816C480.78 416.512 482.732 416.596 484.197 418.536C485.137 419.78 486.548 420.006 488.018 419.721C490.382 419.262 492.459 419.738 494.448 421.155C496.299 422.471 498.513 422.631 500.686 422.232C502.817 421.84 504.502 422.238 505.812 424.066C506.651 425.232 507.895 425.548 509.282 425.262C511.36 424.828 513.122 425.197 514.438 427.042C515.372 428.351 516.759 428.536 518.224 428.274C520.307 427.899 521.95 428.476 523.492 430C524.224 430.72 525.611 431.179 526.653 431.107C529.582 430.905 532.249 431.351 534.654 433.078C534.827 433.203 535.035 433.286 535.237 433.357C539 434.613 542.809 435.75 546.518 437.155C549.798 438.399 552.822 440.321 556.436 440.661C556.9 440.702 557.388 441.185 557.739 441.577C558.924 442.923 560.418 443.31 562.121 443.185C563.722 443.065 565.133 443.47 566.139 444.81C567.229 446.262 568.651 446.78 570.413 446.44C572.372 446.065 574.051 446.506 575.348 448.113C576.247 449.232 577.45 449.536 578.831 449.381C580.337 449.208 581.843 449.071 583.349 448.934C584.956 448.786 586.516 448.333 586.742 446.53C586.98 444.619 586.986 442.601 585.177 441.208C582.295 438.994 579.426 436.762 576.545 434.548C576.206 434.286 575.854 434.006 575.461 433.851C572.652 432.768 569.83 431.726 567.02 430.649C566.324 430.381 565.55 430.167 564.984 429.714C562.895 428.042 561.055 425.988 558.793 424.619C556.073 422.976 553.078 421.703 550.072 420.649C548.512 420.107 547.143 419.649 545.911 418.435C544.244 416.786 542.345 415.334 540.381 414.06C539.583 413.542 538.303 413.488 537.303 413.631C535.392 413.917 533.916 413.483 532.737 411.923C532.356 411.423 531.838 410.834 531.273 410.691C528.153 409.887 525.814 407.185 522.325 407.161C521.432 407.155 520.373 406.251 519.694 405.495C518.486 404.143 517.146 403.554 515.384 403.959C513.515 404.387 511.979 403.917 510.812 402.34C509.794 400.965 508.36 400.661 506.758 400.935C504.925 401.251 503.323 400.959 502.145 399.352C501.145 397.983 499.758 397.542 498.132 397.893C496.138 398.328 494.531 397.864 493.311 396.132C492.4 394.84 491.072 394.614 489.554 394.828C488.274 395.007 486.935 395.227 485.691 395.024C484.262 394.792 482.738 394.364 481.547 393.572C480.006 392.548 478.529 392.001 476.702 392.346C474.154 392.828 471.767 392.447 469.57 390.977C467.981 389.911 466.201 389.578 464.302 389.834C463.016 390.007 461.712 390.072 460.444 390.316C458.289 390.727 456.378 390.596 454.932 388.638C453.991 387.364 452.592 387.215 451.122 387.4C447.258 387.882 443.383 388.275 439.543 388.864C437.365 389.203 435.489 389.138 434.055 387.167C433.025 385.751 431.477 385.775 429.923 385.971C423.917 386.733 417.91 387.489 411.904 388.245C410.511 388.423 409.1 388.525 407.725 388.798C404.54 389.429 401.641 389.245 398.73 387.388C397.343 386.501 395.176 386.34 393.444 386.548C380.776 388.06 368.132 389.721 355.487 391.394C352.791 391.751 350.189 392.37 348.576 395.007C347.653 396.513 345.957 396.768 344.308 396.971C339.051 397.626 333.807 398.37 328.544 398.965C326.55 399.191 325.032 399.84 324.252 401.822C323.627 403.411 322.312 404.048 320.669 404.155C319.805 404.215 318.954 404.399 318.091 404.453C315.501 404.626 313.388 405.245 312.15 408.018C311.174 410.221 308.697 410.042 306.679 409.816C304.726 409.596 304.316 407.929 304.095 406.203C302.947 397.084 301.726 387.971 300.607 378.852C300.315 376.489 299.911 374.424 297.291 373.465C295.66 372.864 295.446 371.221 295.249 369.68C294.595 364.531 293.856 359.394 293.279 354.233C293.029 351.966 292.338 350.073 290.457 348.65C288.6 347.245 288.064 345.108 287.695 342.954C287.385 341.144 287.153 339.317 286.951 337.49C286.784 335.96 286.123 334.781 284.671 334.228C282.659 333.46 282.028 331.9 281.831 329.924C281.563 327.234 281.194 324.555 280.784 321.883C280.659 321.061 280.409 320.139 279.903 319.531C279.504 319.049 278.516 318.656 277.968 318.823C277.456 318.978 276.932 319.889 276.861 320.519C276.748 321.573 276.962 322.668 277.099 323.74C284.07 377.9 291.047 432.066 298.018 486.226C299.166 495.13 300.315 504.029 301.44 512.934C301.589 514.106 301.768 515.326 301.595 516.475C301.309 518.374 299.565 519.029 298.357 517.582C296.672 515.553 294.797 515.023 292.344 515.57C290.922 515.892 289.832 515.07 289.023 513.981C287.921 512.499 286.504 512.088 284.742 512.44C283.093 512.767 281.415 512.707 280.194 511.404C278.402 509.493 276.14 509.422 273.884 509.755C271.074 510.166 268.61 510.249 266.61 507.642C266.086 506.957 264.425 506.844 263.335 506.957C261.169 507.184 259.335 506.844 257.573 505.469C255.656 503.969 253.299 503.999 251.037 504.362C248.852 504.713 247.078 504.416 245.417 502.755C244.685 502.023 243.339 501.767 242.226 501.594C241.184 501.434 240.053 501.553 239 501.755C236.529 502.231 234.339 502.148 232.541 499.97C232.029 499.345 230.838 499.13 229.921 499.029C228.862 498.91 227.749 498.999 226.695 499.202C224.022 499.714 221.605 499.737 219.623 497.356C219.117 496.749 217.879 496.547 216.968 496.523C215.468 496.481 213.944 496.66 212.455 496.892C210.408 497.214 208.681 496.845 207.032 495.464C206.199 494.767 204.925 494.392 203.812 494.285C202.216 494.136 200.567 494.535 198.966 494.404C197.287 494.273 195.436 494.16 194.025 493.38C191.62 492.059 189.239 491.523 186.566 491.886C183.804 492.261 181.208 491.94 178.869 490.196C177.404 489.107 175.642 489.124 173.88 489.374C170.922 489.791 168.153 489.66 165.588 487.66C164.623 486.91 162.962 486.934 161.605 486.863C160.218 486.791 158.807 487.065 157.408 487.13C155.843 487.208 154.414 486.868 153.259 485.684C151.932 484.327 150.301 484.035 148.479 484.363C147.419 484.553 146.33 484.595 145.258 484.744C143.121 485.041 141.187 484.892 139.728 482.958C138.883 481.833 137.603 481.577 136.216 481.797C135.043 481.982 133.841 482.011 132.68 482.255C130.293 482.749 128.269 482.571 126.632 480.363C126.12 479.672 124.762 479.375 123.78 479.333C122.393 479.273 120.988 479.583 119.601 479.797C116.315 480.309 113.184 480.357 110.374 478.047C109.636 477.44 108.338 477.238 107.326 477.297C105.064 477.428 102.826 477.845 100.575 478.142C99.0157 478.351 98.2954 479.232 98.4145 480.797C98.4442 481.226 98.48 481.66 98.5276 482.089C98.8967 485.47 99.6586 486.095 103.29 485.874L103.308 485.863Z" fill="white"/>
<path d="M95.2534 457.446C95.8844 459.899 95.0153 461.297 93.5687 462.714C91.9793 464.274 90.6339 466.125 89.3838 467.988C88.9016 468.714 88.7408 469.845 88.848 470.738C89.104 472.827 88.7349 474.476 87.0324 475.934C85.4251 477.309 85.2881 480.458 86.4311 482.178C87.7229 484.124 91.9674 483.874 93.5568 481.761C96.3547 478.041 98.9085 474.101 102.034 470.672C105.647 466.714 109.814 463.262 113.642 459.494C115.541 457.625 117.297 455.589 118.982 453.518C121.208 450.786 123.328 447.97 125.447 445.149C127.114 442.929 128.495 440.446 130.388 438.446C132.769 435.929 134.65 432.756 138.347 431.691C139.293 431.417 140.174 430.613 140.877 429.857C141.966 428.691 142.907 427.381 143.853 426.09C145.496 423.846 147.038 421.524 148.735 419.322C150.17 417.459 151.664 415.607 153.336 413.971C154.039 413.286 155.247 413.024 156.277 412.804C157.766 412.489 158.67 411.667 159.528 410.417C161.278 407.864 163.278 405.483 165.183 403.036C165.51 402.614 166.034 402.274 166.213 401.804C167.064 399.56 168.725 398.387 170.993 397.899C171.505 397.786 172.094 397.572 172.434 397.203C174.321 395.167 176.202 393.12 177.964 390.983C179.458 389.167 180.726 387.167 182.244 385.37C182.744 384.775 183.679 384.292 184.447 384.233C186.822 384.054 188.054 382.751 189.548 380.935C191.68 378.346 193.013 374.989 196.388 373.37C198.478 372.37 200.234 370.68 202.139 369.287C202.401 369.096 202.764 368.912 202.853 368.644C203.966 365.418 207.223 364.293 209.312 362.025C210.021 361.257 211.128 360.876 211.955 360.204C213.009 359.352 214.241 358.543 214.914 357.424C215.843 355.87 216.944 354.936 218.73 354.876C220.665 354.811 221.629 353.65 222.778 352.168C224.927 349.4 227.421 346.888 230.695 345.275C231.981 344.644 233.202 343.626 234.083 342.501C235.005 341.317 235.94 340.4 237.428 340.21C239.405 339.954 240.857 339.097 241.601 337.132C242.155 335.674 243.363 334.984 244.899 334.918C246.905 334.835 248.417 334.121 249.185 332.103C249.786 330.519 251.102 329.823 252.751 329.746C254.65 329.656 256.037 328.877 256.781 327.043C257.418 325.484 258.674 324.734 260.323 324.633C262.198 324.519 263.645 323.829 264.359 321.948C265.02 320.21 266.461 319.627 268.193 319.448C270.128 319.246 272.074 319.043 273.967 318.633C274.67 318.478 275.67 317.817 275.789 317.234C276.045 315.996 275.009 315.305 273.902 315.031C273.295 314.883 272.61 314.954 271.979 315.031C263.615 316.091 255.257 317.18 246.899 318.24C245.107 318.466 243.566 319.156 242.411 320.561C240.726 322.615 238.476 323.502 235.922 323.811C234.85 323.942 233.785 324.168 232.707 324.222C230.267 324.335 228.338 325.085 227.362 327.603C226.85 328.924 225.558 329.406 224.177 329.478C222.075 329.585 220.605 330.502 219.414 332.323C218.789 333.275 217.468 334.001 216.319 334.341C214.087 335.001 212.074 335.835 210.539 337.686C210.009 338.329 209.235 338.864 208.467 339.198C206.711 339.966 205.318 340.995 204.574 342.847C203.972 344.335 202.603 344.769 201.139 344.87C199.24 345.001 197.877 345.799 197.15 347.638C196.585 349.073 195.448 349.846 193.906 349.942C191.799 350.067 190.394 350.942 189.346 352.942C188.269 355.001 186.691 356.846 185.102 358.561C184.459 359.251 183.22 359.537 182.202 359.698C180.476 359.971 179.309 360.686 178.387 362.275C177.154 364.388 175.642 366.376 174.017 368.209C173.392 368.918 172.16 369.269 171.148 369.412C169.279 369.674 168.118 370.525 167.106 372.18C165.659 374.537 163.76 376.614 162.046 378.804C161.849 379.054 161.552 379.227 161.337 379.471C159.528 381.477 157.021 383.215 154.676 384.162C154.194 384.358 153.664 384.65 153.366 385.048C151.818 387.096 150.39 389.233 148.818 391.263C146.991 393.626 145.056 395.917 143.163 398.233C142.96 398.483 142.621 398.649 142.484 398.923C141.288 401.334 139.454 402.745 136.704 402.983C136.132 403.03 135.454 403.483 135.097 403.959C133.531 405.995 132.084 408.114 130.566 410.185C129.304 411.911 128.036 413.631 126.709 415.304C124.983 417.482 123.179 419.602 121.44 421.774C119.839 423.78 118.244 425.798 116.708 427.857C115.047 430.083 113.493 432.393 111.826 434.619C109.713 437.441 107.558 440.232 105.367 442.994C103.641 445.173 101.808 447.268 100.057 449.428C98.6406 451.178 97.1703 452.893 95.944 454.774C95.4082 455.601 95.4261 456.791 95.2713 457.446H95.2534Z" fill="white"/>
</svg>
